<svg width="243" height="62" fill="none" xmlns="http://www.w3.org/2000/svg"><path d="M138.044 59.106l-1.904-6.189c-.271-.856-.506-1.356-.703-1.497-.197-.142-.807-.216-1.818-.216l-2.306 7.853-1.448-6.14c-.21-.856-.419-1.356-.629-1.497-.216-.142-.875-.216-1.985-.216l2.854 9.757c1.11 0 1.782-.074 2.01-.215.228-.142.474-.635.727-1.474l1.788-5.948 2.305 7.637c1.19 0 1.898-.074 2.126-.215.228-.142.475-.635.728-1.474l2.428-8.062h-2.188l-1.985 7.896zm9.641-8.019c-3.255 0-4.876 1.658-4.876 4.974 0 3.285 1.609 4.925 4.833 4.925h3.661c0-.826-.068-1.307-.203-1.442-.136-.136-.598-.204-1.393-.204h-2.139c-.876 0-1.541-.222-2.01-.666-.468-.443-.702-1.041-.702-1.787h5.091c1.048 0 1.658-.068 1.831-.203.172-.136.259-.604.259-1.418 0-1.24-.358-2.231-1.073-2.971-.777-.801-1.868-1.208-3.279-1.208zm2.256 4.185h-5.092c0-1.3.117-2.059.346-2.287.228-.222.992-.333 2.293-.333 1.664 0 2.484.857 2.453 2.57.018.007.018.02 0 .05zm9.092-4.235c-1.652 0-2.756.444-3.31 1.332v-3.162c0-.857-.087-1.356-.253-1.498-.167-.142-.752-.216-1.751-.216v8.568c0 3.329 1.64 4.999 4.925 4.999 1.572 0 2.737-.5 3.495-1.498.666-.857.999-2.022.999-3.495.006-3.353-1.362-5.03-4.105-5.03zm1.732 7.958c-.222.278-.999.42-2.33.42-1.06 0-1.8-.309-2.213-.931-.352-.506-.524-1.32-.524-2.43 0-1.651.117-2.613.345-2.89.228-.277 1.011-.42 2.342-.42 1.048 0 1.776.309 2.189.932.351.505.524 1.3.524 2.379.006 1.689-.111 2.663-.333 2.94zm15.28-3.125c-.32-.142-1.319-.413-2.996-.807-1.078-.24-1.615-.586-1.615-1.048 0-.635.093-.999.284-1.091.129-.062.764-.093 1.905-.093h2.046c.746 0 1.177-.068 1.295-.203.117-.136.178-.604.178-1.418h-3.476c-2.885 0-4.309.968-4.259 2.903.018.986.573 1.695 1.664 2.14.031.018 1.029.276 2.995.782 1.061.253 1.597.666 1.597 1.239 0 .585-.086.912-.253.974-.166.061-.863.092-2.083.092h-2.238c-.776 0-1.226.068-1.356.204-.129.135-.191.616-.191 1.442h3.828c1.43 0 2.521-.296 3.285-.881.666-.506.999-1.16.999-1.954.006-1.03-.536-1.788-1.609-2.281zm7.489-4.783c-3.254 0-4.875 1.658-4.875 4.974 0 3.285 1.608 4.925 4.832 4.925h3.662c0-.826-.068-1.307-.204-1.442-.136-.136-.598-.204-1.393-.204h-2.139c-.875 0-1.541-.222-2.009-.666-.469-.443-.703-1.041-.703-1.787h5.091c1.048 0 1.659-.068 1.831-.203.173-.136.259-.604.259-1.418 0-1.24-.358-2.231-1.073-2.971-.77-.801-1.867-1.208-3.279-1.208zm2.262 4.185h-5.091c0-1.3.117-2.059.345-2.287.228-.222.993-.333 2.293-.333 1.664 0 2.484.857 2.453 2.57.019.007.019.02 0 .05zm5.332-2.712c0-.684-.061-1.079-.191-1.19-.129-.11-.579-.166-1.356-.166v8.062c0 .839.086 1.332.253 1.474.166.141.758.215 1.775.215v-5.4c0-1.17.074-1.892.216-2.163.191-.333.69-.5 1.498-.5.647 0 1.029-.067 1.128-.203.104-.135.154-.647.154-1.535-1.831-.073-2.99.395-3.477 1.406zm8.87 6.688l-2.262-6.306c-.321-.875-.592-1.38-.832-1.522-.241-.142-.912-.216-2.022-.216l3.951 9.757c1.14 0 1.843-.074 2.096-.215.253-.142.561-.641.931-1.498l3.427-8.044h-2.305l-2.984 8.044zm6.189-8.044v8.02c0 .874.086 1.38.252 1.522.167.141.759.215 1.776.215v-8.087c0-.838-.087-1.331-.253-1.46-.173-.142-.758-.21-1.775-.21zm.974-3.569c-.999 0-1.498.413-1.498 1.239 0 .807.499 1.214 1.498 1.214.967 0 1.454-.407 1.454-1.214 0-.826-.487-1.24-1.454-1.24zm5.424 5.356c.24-.061.869-.092 1.905-.092h1.522c.764 0 1.208-.074 1.331-.216.13-.142.192-.629.192-1.448h-2.996c-3.205 0-4.808 1.627-4.808 4.875 0 3.255 1.615 4.876 4.851 4.876h2.953c0-.826-.068-1.307-.204-1.442-.135-.136-.598-.204-1.393-.204h-1.43c-1.806 0-2.712-1.085-2.712-3.26 0-1.22.031-1.991.092-2.306.105-.425.333-.69.697-.783zm10.781-1.904c-3.255 0-4.876 1.658-4.876 4.974 0 3.285 1.609 4.925 4.833 4.925h3.661c0-.826-.068-1.307-.204-1.442-.135-.136-.597-.204-1.393-.204h-2.138c-.876 0-1.541-.222-2.01-.666-.468-.443-.703-1.041-.703-1.787h5.092c1.048 0 1.658-.068 1.831-.203.172-.136.258-.604.258-1.418 0-1.24-.357-2.231-1.072-2.971-.777-.801-1.868-1.208-3.279-1.208zm2.256 4.185h-5.092c0-1.3.117-2.059.345-2.287.228-.222.993-.333 2.293-.333 1.665 0 2.484.857 2.454 2.57.018.007.018.02 0 .05zm9.899.598c-.321-.142-1.319-.413-2.996-.807-1.078-.24-1.615-.586-1.615-1.048 0-.635.093-.999.284-1.091.129-.062.764-.093 1.905-.093h2.046c.746 0 1.177-.068 1.294-.203.117-.136.179-.604.179-1.418h-3.476c-2.885 0-4.309.968-4.26 2.903.019.986.574 1.695 1.665 2.14.03.018 1.029.276 2.995.782 1.061.253 1.597.666 1.597 1.239 0 .585-.087.912-.253.974-.166.061-.863.092-2.083.092h-2.238c-.777 0-1.226.068-1.356.204-.129.135-.191.616-.191 1.442h3.828c1.43 0 2.521-.296 3.285-.881.666-.506.999-1.16.999-1.954.012-1.03-.53-1.788-1.609-2.281zM29.83 2.503c-8.074-.16-14.528 1.744-19.36 5.714-4.833 3.97-8.045 10.01-9.635 18.11-.758 3.852-.998 7.23-.727 10.126.27 2.898 1.06 5.314 2.36 7.25 1.646 2.44 4.192 4.296 7.638 5.565 3.445 1.27 7.79 1.96 13.036 2.065l5.283.105 5.282.105c.247-1.258.401-2.256.45-2.996.05-.74.007-1.214-.135-1.424-.148-.215-.536-.382-1.171-.499-.642-.117-1.523-.185-2.657-.21l-3.027-.061-3.026-.062c-4.062-.08-7.434-.604-10.109-1.56-2.681-.96-4.666-2.354-5.96-4.19-1.091-1.51-1.751-3.434-1.985-5.77-.234-2.336-.037-5.085.585-8.248.666-3.384 1.282-6.188 1.856-8.407.573-2.22 1.097-3.859 1.578-4.913.635-1.325 1.442-2.41 2.434-3.248.993-.839 2.164-1.424 3.52-1.77 1.042-.277 2.632-.468 4.765-.573 2.132-.104 4.814-.123 8.038-.061 3.47.068 6.36.548 8.672 1.436 2.312.888 4.038 2.188 5.184 3.902.912 1.405 1.455 3.156 1.64 5.245.185 2.09 0 4.518-.543 7.28-.5 2.546-.968 4.555-1.399 6.034-.431 1.48-.832 2.429-1.196 2.842-.363.413-1.078.715-2.132.906-.605.105-1.246.173-2.072.204l.58-3.31 1.374-7.804c.352-1.985.432-3.692.253-5.122-.185-1.43-.635-2.577-1.35-3.446-.82-1.048-2.077-1.837-3.766-2.36-1.695-.525-3.822-.79-6.392-.79h-9.64c-.204 1.16-.32 2.078-.352 2.756-.03.671.025 1.11.173 1.294.142.191.518.333 1.116.425.597.093 1.417.142 2.471.142h5.621c1.32 0 2.436.105 3.348.32.345.08.653.18.937.29.48.185.887.4 1.214.666.518.425.863.992 1.03 1.707.172.715.166 1.572-.013 2.577h-8.66c-1.923 0-3.643.216-5.172.653-1.529.438-2.86 1.091-3.994 1.96a10.037 10.037 0 00-2.509 2.83c-.635 1.085-1.079 2.305-1.319 3.667-.24 1.363-.19 2.564.148 3.612.34 1.048.968 1.942 1.886 2.682.845.672 1.862 1.17 3.064 1.51 1.202.333 2.582.5 4.148.5a19.7 19.7 0 003.778-.352 16.696 16.696 0 003.434-1.054 13.073 13.073 0 002.465-1.356 8.118 8.118 0 001.726-1.634l-.012.197c-.037.222-.074.45-.105.666a15.727 15.727 0 00-.197 1.819c-.019.604.05.992.197 1.17.099.124.32.222.635.303.148.037.308.074.5.098.45.062 1.023.105 1.713.124h.043c.16.006.34.006.512.006h.252c4.944-.253 7.594-2.423 8.938-4.007a17.21 17.21 0 002.694-4.37c.758-1.77 1.368-3.852 1.837-6.25 1.473-7.514.56-13.185-2.737-17.025-3.292-3.828-8.981-5.831-17.056-5.991zm1.776 30.11c-.364 1.11-.746 1.825-1.135 2.152-.388.326-1.183.567-2.373.727-1.19.16-2.78.24-4.765.24-2.052 0-3.531-.326-4.444-.986-.912-.66-1.251-1.646-1.017-2.965.204-1.14.425-2.04.678-2.706.253-.665.524-1.09.826-1.282.302-.19.925-.333 1.868-.425.943-.093 2.207-.142 3.79-.142h7.768l-.074.438-.074.437c-.332 1.899-.684 3.403-1.047 4.512zm41.236-21.66c-5.097 0-8.746 1.375-10.947 4.118l1.726-9.776c.468-2.645.48-4.192.043-4.63C63.233.223 61.47 0 58.382 0l-4.666 26.468c-1.813 10.294 2.348 15.44 12.494 15.44 4.85 0 8.728-1.54 11.625-4.629 2.527-2.644 4.192-6.25 4.993-10.805 1.824-10.35-1.504-15.52-9.986-15.52zm3.662 15.515c-.919 5.196-1.794 8.223-2.632 9.08-.839.856-3.317 1.288-7.434 1.288-3.285 0-5.394-.956-6.33-2.867-.802-1.565-.9-4.068-.296-7.495.9-5.098 1.781-8.075 2.638-8.931.863-.857 3.353-1.289 7.47-1.289 3.237 0 5.32.956 6.257 2.866.807 1.56.912 4.013.327 7.348zm10.842-6.028c-.487 3.038.838 5.245 3.982 6.613.092.05 3.032.857 8.833 2.423 3.143.783 4.561 2.059 4.253 3.822-.321 1.812-.752 2.816-1.307 3.014-.548.197-2.712.296-6.484.296h-6.91c-2.404 0-3.834.21-4.302.622-.469.42-.925 1.899-1.375 4.444H95.87c4.413 0 7.951-.906 10.626-2.718 2.336-1.566 3.717-3.575 4.149-6.028.561-3.187-.691-5.535-3.754-7.058-.906-.444-3.846-1.276-8.82-2.496-3.206-.734-4.68-1.813-4.433-3.236.346-1.96.839-3.089 1.48-3.378.425-.198 2.404-.296 5.936-.296h6.324c2.299 0 3.673-.21 4.117-.623.444-.413.882-1.873 1.326-4.376H102.09c-8.925.006-13.838 2.996-14.744 8.975zm57.294 6.096c1.806-10.245-2.269-15.367-12.217-15.367-9.949 0-15.829 5.122-17.635 15.367-1.812 10.294 2.225 15.44 12.13 15.44 9.998 0 15.91-5.146 17.722-15.44zm-6.398 0c-.906 5.147-1.794 8.148-2.657 9.005-.863.857-3.452 1.289-7.76 1.289-5.634 0-7.847-3.434-6.639-10.294.9-5.098 1.775-8.075 2.638-8.932.863-.857 3.421-1.288 7.687-1.288 3.285 0 5.412 1.005 6.379 3.014.808 1.572.925 3.976.352 7.206zM159.686.623C159.242.21 157.455 0 154.317 0l-6.392 36.244c-.474 2.694-.493 4.265-.061 4.703.437.444 2.225.666 5.362.666l6.429-36.466c.462-2.601.469-4.105.031-4.524zm11.046 41.353c5.732 0 9.683-1.565 11.859-4.703-.382 2.158-.407 3.421-.08 3.785.327.37 1.689.555 4.093.555l4.284-24.7c.487-2.742.505-4.339.068-4.776-.438-.444-2.226-.66-5.357-.66l-2.94 16.686c-.752 4.265-1.51 6.75-2.275 7.465-.764.708-3.075 1.066-6.946 1.066-3.039 0-4.975-.709-5.801-2.133-.684-1.128-.764-3.162-.246-6.102l2.034-11.539c.487-2.743.505-4.34.068-4.777-.438-.444-2.201-.66-5.289-.66l-2.903 16.47c-.826 4.704-.697 8.112.407 10.22 1.362 2.527 4.37 3.803 9.024 3.803zm33.821-5.442c-1.96 0-2.73-1.202-2.305-3.6l2.879-16.322h2.94c2.545 0 4.068-.222 4.561-.66.493-.444.968-1.935 1.418-4.48h-8.161l1.337-7.57h-6.25l-.949 5.369c-.327 1.861-.641 2.94-.937 3.236-.296.296-1.523.444-3.68.444l-.733 3.747h4.043l-2.866 16.248c-.561 3.187-.074 5.474 1.473 6.873 1.541 1.4 4.321 2.096 8.346 2.096.832 0 1.744-.025 2.731-.074.468-2.645.542-4.192.228-4.63-.315-.455-1.671-.677-4.075-.677zm36.466-21.685c-1.96-2.503-5.122-3.748-9.486-3.748-10.047 0-15.977 5.123-17.783 15.367-1.788 10.146 2.293 15.219 12.242 15.219h11.323c.45-2.546.499-4.031.16-4.444-.345-.413-1.738-.623-4.192-.623h-6.613c-2.7 0-4.648-.684-5.85-2.059-1.202-1.374-1.603-3.211-1.196-5.51h15.731c3.236 0 5.159-.21 5.769-.623.61-.413 1.14-1.874 1.578-4.376.678-3.834.117-6.898-1.683-9.203zm-4.783 9.19h-15.73c.708-4.019 1.479-6.367 2.311-7.057.832-.684 3.255-1.03 7.274-1.03 5.146 0 7.199 2.645 6.17 7.94.049 0 .043.049-.025.147z" fill="#0049AF"/></svg>