<svg width="16" height="16" fill="none" xmlns="http://www.w3.org/2000/svg"><path d="M15.648 13.883l-3.486-3.516c.82-1.21 1.143-2.627.967-4.248-.215-1.367-.8-2.52-1.758-3.457-.957-.957-2.119-1.533-3.486-1.728-1.348-.157-2.569.058-3.662.644a6.508 6.508 0 00-2.52 2.52C1.117 5.19.903 6.412 1.06 7.76c.195 1.367.771 2.53 1.728 3.486.938.977 2.09 1.563 3.457 1.758 1.621.176 3.037-.147 4.248-.967l3.516 3.486c.234.235.508.352.82.352.313 0 .586-.117.82-.352a1.12 1.12 0 00.352-.82c0-.312-.117-.586-.352-.82zM3.314 6.969c.02-1.055.391-1.934 1.114-2.637.703-.723 1.582-1.094 2.636-1.113 1.055.02 1.944.39 2.666 1.113.704.703 1.065 1.582 1.085 2.637-.02 1.054-.381 1.933-1.085 2.636-.722.723-1.61 1.094-2.666 1.114-1.054-.02-1.933-.39-2.636-1.114-.723-.703-1.094-1.582-1.114-2.636z" fill="#fff"/></svg>