<svg width="243" height="62" viewBox="0 0 243 62" fill="none" xmlns="http://www.w3.org/2000/svg">
<path d="M138.044 59.106L136.14 52.9174C135.869 52.0606 135.634 51.5614 135.437 51.4196C135.24 51.2778 134.63 51.2039 133.619 51.2039L131.313 59.0567L129.865 52.9174C129.655 52.0606 129.446 51.5614 129.236 51.4196C129.02 51.2778 128.361 51.2039 127.251 51.2039L130.105 60.9614C131.215 60.9614 131.887 60.8874 132.115 60.7456C132.343 60.6039 132.589 60.1108 132.842 59.2725L134.63 53.3243L136.935 60.9614C138.125 60.9614 138.833 60.8874 139.061 60.7456C139.289 60.6039 139.536 60.1108 139.789 59.2725L142.217 51.21H140.029L138.044 59.106Z" fill="#0049AF"/>
<path d="M147.685 51.0867C144.43 51.0867 142.809 52.7448 142.809 56.061C142.809 59.3464 144.418 60.986 147.642 60.986H151.303C151.303 60.1601 151.235 59.6793 151.1 59.5437C150.964 59.4081 150.502 59.3402 149.707 59.3402H147.568C146.692 59.3402 146.027 59.1183 145.558 58.6745C145.09 58.2307 144.856 57.6328 144.856 56.887H149.947C150.995 56.887 151.605 56.8192 151.778 56.6836C151.95 56.548 152.037 56.0795 152.037 55.2659C152.037 54.0269 151.679 53.0345 150.964 52.2949C150.187 51.4936 149.096 51.0867 147.685 51.0867ZM149.941 55.272H144.849C144.849 53.9715 144.966 53.2133 145.195 52.9852C145.423 52.7633 146.187 52.6524 147.488 52.6524C149.152 52.6524 149.972 53.5092 149.941 55.2227C149.959 55.2289 149.959 55.2412 149.941 55.272Z" fill="#0049AF"/>
<path d="M159.033 51.0374C157.381 51.0374 156.277 51.4812 155.723 52.3688V49.2067C155.723 48.35 155.636 47.8507 155.47 47.7089C155.303 47.5671 154.718 47.4932 153.719 47.4932V56.061C153.719 59.3896 155.359 61.06 158.644 61.06C160.216 61.06 161.381 60.5607 162.139 59.5622C162.805 58.7054 163.138 57.5404 163.138 56.0672C163.144 52.714 161.776 51.0374 159.033 51.0374ZM160.765 58.9951C160.543 59.2725 159.766 59.4142 158.435 59.4142C157.375 59.4142 156.635 59.106 156.222 58.4835C155.87 57.978 155.698 57.1644 155.698 56.0549C155.698 54.4029 155.815 53.4414 156.043 53.164C156.271 52.8866 157.054 52.7448 158.385 52.7448C159.433 52.7448 160.161 53.053 160.574 53.6756C160.925 54.181 161.098 54.9762 161.098 56.0549C161.104 57.7438 160.987 58.7177 160.765 58.9951Z" fill="#0049AF"/>
<path d="M176.045 55.87C175.725 55.7282 174.726 55.457 173.049 55.0625C171.971 54.8221 171.434 54.4769 171.434 54.0146C171.434 53.3797 171.527 53.0161 171.718 52.9236C171.847 52.862 172.482 52.8311 173.623 52.8311H175.669C176.415 52.8311 176.846 52.7633 176.964 52.6277C177.081 52.4921 177.142 52.0237 177.142 51.21H173.666C170.781 51.21 169.357 52.1778 169.407 54.1132C169.425 55.0995 169.98 55.8083 171.071 56.2521C171.102 56.2706 172.1 56.5295 174.066 57.0349C175.127 57.2877 175.663 57.7007 175.663 58.2739C175.663 58.8595 175.577 59.1862 175.41 59.2478C175.244 59.3094 174.547 59.3403 173.327 59.3403H171.089C170.313 59.3403 169.863 59.4081 169.733 59.5437C169.604 59.6793 169.542 60.1601 169.542 60.986H173.37C174.8 60.986 175.891 60.6902 176.655 60.1046C177.321 59.5991 177.654 58.9458 177.654 58.1506C177.66 57.1212 177.118 56.3631 176.045 55.87Z" fill="#0049AF"/>
<path d="M183.534 51.0867C180.28 51.0867 178.659 52.7448 178.659 56.061C178.659 59.3464 180.267 60.986 183.491 60.986H187.153C187.153 60.1601 187.085 59.6793 186.949 59.5437C186.813 59.4081 186.351 59.3402 185.556 59.3402H183.417C182.542 59.3402 181.876 59.1183 181.408 58.6745C180.939 58.2307 180.705 57.6328 180.705 56.887H185.796C186.844 56.887 187.455 56.8192 187.627 56.6836C187.8 56.548 187.886 56.0795 187.886 55.2659C187.886 54.0269 187.528 53.0345 186.813 52.2949C186.043 51.4936 184.946 51.0867 183.534 51.0867ZM185.796 55.272H180.705C180.705 53.9715 180.822 53.2133 181.05 52.9852C181.278 52.7633 182.043 52.6524 183.343 52.6524C185.007 52.6524 185.827 53.5092 185.796 55.2227C185.815 55.2289 185.815 55.2412 185.796 55.272Z" fill="#0049AF"/>
<path d="M191.128 52.5599C191.128 51.8757 191.067 51.4812 190.937 51.3703C190.808 51.2593 190.358 51.2039 189.581 51.2039V59.2663C189.581 60.1046 189.667 60.5977 189.834 60.7395C190 60.8812 190.592 60.9552 191.609 60.9552V55.5556C191.609 54.3844 191.683 53.6633 191.825 53.3921C192.016 53.0592 192.515 52.8928 193.323 52.8928C193.97 52.8928 194.352 52.825 194.451 52.6894C194.555 52.5538 194.605 52.0421 194.605 51.1545C192.774 51.0806 191.615 51.549 191.128 52.5599Z" fill="#0049AF"/>
<path d="M199.998 59.2478L197.736 52.9421C197.415 52.0668 197.144 51.5614 196.904 51.4196C196.663 51.2778 195.992 51.2039 194.882 51.2039L198.833 60.9614C199.973 60.9614 200.676 60.8874 200.929 60.7456C201.182 60.6039 201.49 60.1046 201.86 59.2478L205.287 51.2039H202.982L199.998 59.2478Z" fill="#0049AF"/>
<path d="M206.187 51.2039V59.2231C206.187 60.0984 206.273 60.6039 206.439 60.7456C206.606 60.8874 207.198 60.9614 208.215 60.9614V52.8743C208.215 52.036 208.128 51.5429 207.962 51.4134C207.789 51.2717 207.204 51.2039 206.187 51.2039Z" fill="#0049AF"/>
<path d="M207.161 47.6349C206.162 47.6349 205.663 48.0479 205.663 48.8739C205.663 49.6814 206.162 50.0882 207.161 50.0882C208.128 50.0882 208.615 49.6814 208.615 48.8739C208.615 48.0479 208.128 47.6349 207.161 47.6349Z" fill="#0049AF"/>
<path d="M212.585 52.9914C212.825 52.9298 213.454 52.8989 214.49 52.8989H216.012C216.776 52.8989 217.22 52.825 217.343 52.6832C217.473 52.5414 217.535 52.0545 217.535 51.2347H214.539C211.334 51.2347 209.731 52.862 209.731 56.1104C209.731 59.3649 211.346 60.986 214.582 60.986H217.535C217.535 60.1601 217.467 59.6793 217.331 59.5437C217.196 59.4081 216.733 59.3403 215.938 59.3403H214.508C212.702 59.3403 211.796 58.2554 211.796 56.0795C211.796 54.8591 211.827 54.0886 211.888 53.7742C211.993 53.3489 212.221 53.0839 212.585 52.9914Z" fill="#0049AF"/>
<path d="M223.366 51.0867C220.111 51.0867 218.49 52.7448 218.49 56.061C218.49 59.3464 220.099 60.986 223.323 60.986H226.984C226.984 60.1601 226.916 59.6793 226.78 59.5437C226.645 59.4081 226.183 59.3402 225.387 59.3402H223.249C222.373 59.3402 221.708 59.1183 221.239 58.6745C220.771 58.2307 220.536 57.6328 220.536 56.887H225.628C226.676 56.887 227.286 56.8192 227.459 56.6836C227.631 56.548 227.717 56.0795 227.717 55.2659C227.717 54.0269 227.36 53.0345 226.645 52.2949C225.868 51.4936 224.777 51.0867 223.366 51.0867ZM225.622 55.272H220.53C220.53 53.9715 220.647 53.2133 220.875 52.9852C221.103 52.7633 221.868 52.6524 223.168 52.6524C224.833 52.6524 225.652 53.5092 225.622 55.2227C225.64 55.2289 225.64 55.2412 225.622 55.272Z" fill="#0049AF"/>
<path d="M235.521 55.87C235.2 55.7282 234.202 55.457 232.525 55.0625C231.447 54.8221 230.91 54.4769 230.91 54.0146C230.91 53.3797 231.003 53.0161 231.194 52.9236C231.323 52.862 231.958 52.8311 233.099 52.8311H235.145C235.891 52.8311 236.322 52.7633 236.439 52.6277C236.556 52.4921 236.618 52.0237 236.618 51.21H233.142C230.257 51.21 228.833 52.1778 228.882 54.1132C228.901 55.0995 229.456 55.8083 230.547 56.2521C230.577 56.2706 231.576 56.5295 233.542 57.0349C234.603 57.2877 235.139 57.7007 235.139 58.2739C235.139 58.8595 235.052 59.1862 234.886 59.2478C234.72 59.3094 234.023 59.3403 232.803 59.3403H230.565C229.788 59.3403 229.339 59.4081 229.209 59.5437C229.08 59.6793 229.018 60.1601 229.018 60.986H232.846C234.276 60.986 235.367 60.6902 236.131 60.1046C236.797 59.5991 237.13 58.9458 237.13 58.1506C237.142 57.1212 236.6 56.3631 235.521 55.87Z" fill="#0049AF"/>
<path d="M29.8302 2.50255C21.7555 2.34229 15.3018 4.24695 10.4693 8.21653C5.63677 12.1861 2.42536 18.2268 0.835062 26.3262C0.0768976 30.1786 -0.163496 33.5565 0.107717 36.4535C0.378931 39.3506 1.16792 41.7669 2.46851 43.7023C4.11428 46.1433 6.65999 47.9986 10.1056 49.2684C13.5513 50.5381 17.8969 51.2285 23.1424 51.3333L28.4249 51.4381L33.7074 51.5429C33.9539 50.2854 34.108 49.2869 34.1573 48.5472C34.2066 47.8075 34.1635 47.3329 34.0217 47.1233C33.8738 46.9076 33.4855 46.7412 32.8506 46.624C32.2095 46.5069 31.3281 46.4391 30.1939 46.4145L27.1674 46.3528L24.1409 46.2912C20.0789 46.2111 16.7072 45.6871 14.0321 44.7317C11.3507 43.7701 9.36596 42.3771 8.07153 40.5402C6.98051 39.0301 6.32097 37.1069 6.08674 34.7708C5.85251 32.4347 6.04976 29.6855 6.67231 26.5234C7.33802 23.1394 7.95441 20.3348 8.52766 18.1158C9.10091 15.8968 9.62484 14.2572 10.1056 13.2032C10.7405 11.8779 11.548 10.7931 12.5404 9.95476C13.5328 9.11646 14.7039 8.53089 16.06 8.18571C17.1017 7.90833 18.692 7.71725 20.8247 7.61246C22.9574 7.50767 25.6388 7.48918 28.8625 7.55082C32.3328 7.61862 35.2237 8.09941 37.5352 8.98702C39.8466 9.87463 41.5725 11.1752 42.719 12.8888C43.6313 14.2942 44.1737 16.0447 44.3587 18.1343C44.5436 20.2239 44.3586 22.6525 43.8162 25.4139C43.3169 27.9596 42.8485 29.9691 42.417 31.4484C41.9855 32.9278 41.5849 33.877 41.2212 34.29C40.8575 34.703 40.1425 35.005 39.0885 35.1961C38.4844 35.3009 37.8434 35.3687 37.0174 35.3995L37.5968 32.0895L38.9714 24.2859C39.3227 22.3011 39.4028 20.5937 39.2241 19.1637C39.0392 17.7337 38.5892 16.5872 37.8742 15.718C37.0544 14.6702 35.7969 13.8812 34.108 13.3573C32.4129 12.8333 30.2864 12.5683 27.716 12.5683H22.8958H18.0756C17.8722 13.7271 17.7551 14.6455 17.7243 15.3236C17.6934 15.9954 17.7489 16.4331 17.8969 16.618C18.0386 16.8091 18.4146 16.9508 19.0125 17.0433C19.6104 17.1357 20.4302 17.1851 21.4843 17.1851H24.295H27.1058C28.4249 17.1851 29.5405 17.2898 30.4528 17.5056C30.798 17.5857 31.1062 17.6843 31.3897 17.7953C31.8705 17.9802 32.2773 18.1959 32.604 18.461C33.1218 18.8863 33.467 19.4534 33.6334 20.1684C33.806 20.8834 33.7998 21.7402 33.6211 22.7449H33.467H29.2755H24.9607C23.0376 22.7449 21.3178 22.9607 19.7892 23.3983C18.2605 23.836 16.9291 24.4893 15.7949 25.3584C14.7594 26.1598 13.9273 27.109 13.2862 28.1877C12.6513 29.2726 12.2075 30.493 11.9671 31.8552C11.7267 33.2175 11.7761 34.4194 12.1151 35.4673C12.4541 36.5152 13.0828 37.409 14.0012 38.1486C14.8457 38.8205 15.8628 39.3198 17.0647 39.6588C18.2667 39.9916 19.6474 40.1581 21.2131 40.1581C22.5321 40.1581 23.7896 40.041 24.9915 39.8067C26.1935 39.5725 27.34 39.2211 28.4249 38.7527C29.3679 38.352 30.1877 37.8959 30.8904 37.3966C31.5808 36.9035 32.154 36.3611 32.6163 35.7632L32.604 35.9604C32.567 36.1823 32.53 36.4104 32.4992 36.6261C32.3821 37.3596 32.3205 37.9699 32.302 38.4445C32.2835 39.0486 32.3513 39.4369 32.4992 39.6156C32.5979 39.7389 32.8198 39.8375 33.1341 39.9177C33.282 39.9547 33.4423 39.9916 33.6334 40.0163C34.0834 40.0779 34.6566 40.1211 35.347 40.1396C35.3593 40.1396 35.3716 40.1396 35.3901 40.1396C35.5504 40.1457 35.7291 40.1457 35.9017 40.1457C35.988 40.1457 36.062 40.1457 36.1483 40.1457C36.1483 40.1457 36.1483 40.1457 36.1544 40.1457C41.0979 39.893 43.7484 37.7233 45.0922 36.1392C46.0907 34.9557 47.0276 33.538 47.7858 31.7689C48.544 29.9999 49.1542 27.9165 49.6227 25.5187C51.0958 18.0049 50.1836 12.334 46.8859 8.4939C43.5943 4.6661 37.905 2.66282 29.8302 2.50255ZM31.6055 32.6134C31.2418 33.7229 30.8596 34.4379 30.4713 34.7646C30.083 35.0913 29.2878 35.3317 28.0982 35.492C26.9085 35.6522 25.3182 35.7324 23.3334 35.7324C21.2809 35.7324 19.8015 35.4057 18.8892 34.7461C17.977 34.0866 17.638 33.1004 17.8722 31.7813C18.0756 30.6409 18.2975 29.741 18.5502 29.0753C18.803 28.4096 19.0742 27.9843 19.3762 27.7932C19.6782 27.6021 20.3008 27.4604 21.2439 27.3679C22.187 27.2754 23.4506 27.2261 25.0347 27.2261H28.918H32.8013L32.7273 27.6638L32.6533 28.1014C32.3205 29.9999 31.9691 31.5039 31.6055 32.6134Z" fill="#0049AF"/>
<path d="M72.8422 10.9533C67.7446 10.9533 64.0956 12.3279 61.8951 15.0708L63.621 5.29483C64.0894 2.65049 64.1017 1.10335 63.6641 0.665706C63.2326 0.221902 61.4697 0 58.3816 0L53.7155 26.468C51.9033 36.7617 56.064 41.9086 66.2098 41.9086C71.0608 41.9086 74.938 40.3676 77.835 37.2795C80.3622 34.6352 82.0265 31.0293 82.8278 26.4741C84.6523 16.1249 81.3238 10.9533 72.8422 10.9533ZM76.5036 26.468C75.5852 31.6642 74.7099 34.6907 73.8716 35.5474C73.0333 36.4042 70.5554 36.8357 66.4379 36.8357C63.1525 36.8357 61.0444 35.8803 60.1075 33.9695C59.3062 32.4038 59.2076 29.9013 59.8116 26.4741C60.7116 21.3765 61.593 18.3994 62.4498 17.5426C63.3128 16.6858 65.803 16.2543 69.9205 16.2543C73.1566 16.2543 75.24 17.2097 76.1769 19.1205C76.9844 20.68 77.0892 23.1333 76.5036 26.468Z" fill="#0049AF"/>
<path d="M87.346 20.4396C86.859 23.4784 88.1843 25.6851 91.3279 27.0535C91.4203 27.1028 94.3605 27.9103 100.161 29.4759C103.304 30.2588 104.722 31.5347 104.414 33.2976C104.093 35.1098 103.662 36.1145 103.107 36.3118C102.559 36.509 100.395 36.6076 96.6227 36.6076H89.7129C87.309 36.6076 85.879 36.8172 85.4105 37.2302C84.942 37.6493 84.4859 39.1287 84.0359 41.6744H95.8707C100.284 41.6744 103.822 40.7683 106.497 38.9561C108.833 37.3904 110.214 35.381 110.646 32.9277C111.207 29.741 109.955 27.3925 106.892 25.87C105.986 25.4262 103.046 24.5941 98.0712 23.3736C94.866 22.6401 93.3928 21.5614 93.6394 20.1376C93.9845 18.1774 94.4777 17.0494 95.1187 16.7597C95.544 16.5625 97.5226 16.4639 101.055 16.4639H107.379C109.678 16.4639 111.052 16.2543 111.496 15.8413C111.94 15.4283 112.378 13.9675 112.822 11.4649H102.09C93.1647 11.4711 88.2521 14.4606 87.346 20.4396Z" fill="#0049AF"/>
<path d="M144.64 26.5358C146.446 16.2913 142.371 11.1691 132.423 11.1691C122.474 11.1691 116.594 16.2913 114.788 26.5358C112.976 36.8296 117.013 41.9764 126.918 41.9764C136.916 41.9764 142.828 36.8296 144.64 26.5358ZM138.242 26.5358C137.336 31.6827 136.448 34.6845 135.585 35.5413C134.722 36.3981 132.133 36.8296 127.825 36.8296C122.191 36.8296 119.978 33.3962 121.186 26.5358C122.086 21.4382 122.961 18.461 123.824 17.6042C124.687 16.7474 127.245 16.316 131.511 16.316C134.796 16.316 136.923 17.3207 137.89 19.3301C138.698 20.9019 138.815 23.3059 138.242 26.5358Z" fill="#0049AF"/>
<path d="M159.686 0.622558C159.242 0.209574 157.455 0 154.317 0L147.925 36.244C147.451 38.9376 147.432 40.5094 147.864 40.9471C148.301 41.3909 150.089 41.6128 153.226 41.6128L159.655 5.14689C160.117 2.54571 160.124 1.04171 159.686 0.622558Z" fill="#0049AF"/>
<path d="M170.732 41.9764C176.464 41.9764 180.415 40.4108 182.591 37.2733C182.209 39.4307 182.184 40.6943 182.511 41.058C182.838 41.4278 184.2 41.6127 186.604 41.6127L190.888 16.9138C191.375 14.1709 191.393 12.5744 190.956 12.1368C190.518 11.693 188.73 11.4772 185.599 11.4772L182.659 28.163C181.907 32.4285 181.149 34.9125 180.384 35.6276C179.62 36.3364 177.309 36.6939 173.438 36.6939C170.399 36.6939 168.463 35.9851 167.637 34.5612C166.953 33.4332 166.873 31.3991 167.391 28.4589L169.425 16.92C169.912 14.177 169.93 12.5806 169.493 12.1429C169.055 11.6991 167.292 11.4834 164.204 11.4834L161.301 27.9534C160.475 32.6565 160.604 36.0652 161.708 38.1733C163.07 40.7005 166.078 41.9764 170.732 41.9764Z" fill="#0049AF"/>
<path d="M204.553 36.5337C202.593 36.5337 201.823 35.3317 202.248 32.934L205.127 16.6118H208.067C210.612 16.6118 212.135 16.3899 212.628 15.9523C213.121 15.5085 213.596 14.0168 214.046 11.4711H205.885L207.222 3.90179H200.972L200.023 9.27059C199.696 11.1321 199.382 12.2108 199.086 12.5067C198.79 12.8025 197.563 12.9505 195.406 12.9505L194.673 16.6981H198.716L195.85 32.9463C195.289 36.133 195.776 38.4199 197.323 39.8191C198.864 41.2183 201.644 41.9148 205.669 41.9148C206.501 41.9148 207.413 41.8902 208.4 41.8408C208.868 39.1965 208.942 37.6494 208.628 37.2117C208.313 36.7556 206.957 36.5337 204.553 36.5337Z" fill="#0049AF"/>
<path d="M241.019 14.8489C239.059 12.3464 235.897 11.1013 231.533 11.1013C221.486 11.1013 215.556 16.2235 213.75 26.468C211.962 36.6138 216.043 41.6867 225.992 41.6867H237.315C237.765 39.141 237.814 37.6555 237.475 37.2425C237.13 36.8295 235.737 36.62 233.283 36.62H226.67C223.97 36.62 222.022 35.9358 220.82 34.5612C219.618 33.1867 219.217 31.3498 219.624 29.0507H235.355C238.591 29.0507 240.514 28.8411 241.124 28.4281C241.734 28.0151 242.264 26.5543 242.702 24.0517C243.38 20.2177 242.819 17.1542 241.019 14.8489ZM236.236 24.0394H220.506C221.214 20.0205 221.985 17.672 222.817 16.9817C223.649 16.2975 226.072 15.9523 230.091 15.9523C235.237 15.9523 237.29 18.5966 236.261 23.8914C236.31 23.8914 236.304 23.9407 236.236 24.0394Z" fill="#0049AF"/>
</svg>
