<svg width="16" height="16" viewBox="0 0 16 16" fill="none" xmlns="http://www.w3.org/2000/svg">
<path d="M15.6484 13.8828L12.1621 10.3672C12.9824 9.15625 13.3047 7.74023 13.1289 6.11914C12.9141 4.75195 12.3281 3.59961 11.3711 2.66211C10.4141 1.70508 9.25195 1.12891 7.88477 0.933594C6.53711 0.777344 5.31641 0.992188 4.22266 1.57812C3.14844 2.18359 2.30859 3.02344 1.70312 4.09766C1.11719 5.19141 0.902344 6.41211 1.05859 7.75977C1.25391 9.12695 1.83008 10.2891 2.78711 11.2461C3.72461 12.2227 4.87695 12.8086 6.24414 13.0039C7.86523 13.1797 9.28125 12.8574 10.4922 12.0371L14.0078 15.5234C14.2422 15.7578 14.5156 15.875 14.8281 15.875C15.1406 15.875 15.4141 15.7578 15.6484 15.5234C15.8828 15.2891 16 15.0156 16 14.7031C16 14.3906 15.8828 14.1172 15.6484 13.8828ZM3.31445 6.96875C3.33398 5.91406 3.70508 5.03516 4.42773 4.33203C5.13086 3.60937 6.00977 3.23828 7.06445 3.21875C8.11914 3.23828 9.00781 3.60937 9.73047 4.33203C10.4336 5.03516 10.7949 5.91406 10.8145 6.96875C10.7949 8.02344 10.4336 8.90234 9.73047 9.60547C9.00781 10.3281 8.11914 10.6992 7.06445 10.7188C6.00977 10.6992 5.13086 10.3281 4.42773 9.60547C3.70508 8.90234 3.33398 8.02344 3.31445 6.96875Z" fill="white"/>
</svg>
